# xmcd CD database file
#
# Track frame offsets:
#	150
#	30280
#	49402
#	63387
#	78547
#	106377
#	118407
#	132387
#	145500
#	174567
#	197955
#	214227
#	237982
#	254492
#
# Disc length: 3628 seconds
#
# Revision: 2
# Processed by: cddbd v1.4b41PL1 Copyright (c) Steve Scherf et al.
# Submitted via: Feurio! 1.52 - http://www.feurio.com
#
DISCID=d40e2a0e
DTITLE=Tom Petty and The Heartbreakers - Live and Alive - Disk 1
DYEAR=1900
DGENRE=
TTITLE0=King's Road
TTITLE1=For What It's Worth
TTITLE2=Easy Rider
TTITLE3=The Image Of Me
TTITLE4=Here Comes My Girl
TTITLE5=Should I Stay
TTITLE6=Can't Judge A Book
TTITLE7=Anyway You Want It
TTITLE8=Runaway Train
TTITLE9=Fooled Again
TTITLE10=Don't Let Me Down
TTITLE11=I'm A King Bee
TTITLE12=Route 66
TTITLE13=Strangers
EXTD=
EXTT0=
EXTT1=
EXTT2=
EXTT3=
EXTT4=
EXTT5=
EXTT6=
EXTT7=
EXTT8=
EXTT9=
EXTT10=
EXTT11=
EXTT12=
EXTT13=
PLAYORDER=
